<svg xmlns="http://www.w3.org/2000/svg" viewBox="0 0 28 28" width="64" height="64" aria-label="loom">
  
  <line x1="5" y1="2" x2="5" y2="26" stroke="currentColor" stroke-width="1.6" stroke-linecap="square"></line>
  <line x1="11" y1="2" x2="11" y2="26" stroke="currentColor" stroke-width="1.6" stroke-linecap="square"></line>
  <line x1="17" y1="2" x2="17" y2="26" stroke="currentColor" stroke-width="1.6" stroke-linecap="square"></line>
  <line x1="23" y1="2" x2="23" y2="26" stroke="currentColor" stroke-width="1.6" stroke-linecap="square"></line>
  
  <g stroke="currentColor" stroke-width="1.4" opacity="0.45" stroke-linecap="square">
    <line x1="1" y1="8" x2="4" y2="8"></line>
    <line x1="6" y1="8" x2="10" y2="8"></line>
    <line x1="12" y1="8" x2="16" y2="8"></line>
    <line x1="18" y1="8" x2="22" y2="8"></line>
    <line x1="24" y1="8" x2="27" y2="8"></line>
    <line x1="1" y1="20" x2="4" y2="20"></line>
    <line x1="6" y1="20" x2="10" y2="20"></line>
    <line x1="12" y1="20" x2="16" y2="20"></line>
    <line x1="18" y1="20" x2="22" y2="20"></line>
    <line x1="24" y1="20" x2="27" y2="20"></line>
  </g>
  
  <line x1="0" y1="14" x2="28" y2="14" stroke="#1c8b3f" stroke-width="2.4" stroke-linecap="square"></line>
</svg>